<svg width="128" height="128" viewBox="0 0 128 128" fill="none" xmlns="http://www.w3.org/2000/svg">
<rect width="128" height="128" rx="10" fill="#EFE8E8"/>
<path d="M86.6266 86.6266C99.1253 74.1306 99.1253 53.8693 86.6266 41.3733C74.1306 28.8746 53.8693 28.8746 41.3733 41.3733C28.8746 53.8693 28.8746 74.1306 41.3733 86.6266M101.712 101.712C122.539 80.8853 122.539 47.1146 101.712 26.288C80.8853 5.4613 47.1146 5.4613 26.288 26.288C5.4613 47.1146 5.4613 80.8853 26.288 101.712H101.712Z" stroke="#751C49" stroke-width="4" stroke-linecap="round" stroke-linejoin="round"/>
<path d="M74.6666 64C74.6666 66.829 73.5428 69.5421 71.5424 71.5425C69.5421 73.5429 66.829 74.6667 64 74.6667C61.171 74.6667 58.4579 73.5429 56.4575 71.5425C54.4571 69.5421 53.3333 66.829 53.3333 64C53.3333 61.1711 54.4571 58.458 56.4575 56.4576C58.4579 54.4572 61.171 53.3334 64 53.3334C66.829 53.3334 69.5421 54.4572 71.5424 56.4576C73.5428 58.458 74.6666 61.1711 74.6666 64Z" fill="#751C49"/>
<path d="M64 117.333H53.3333M64 74.6667C66.829 74.6667 69.5421 73.5429 71.5424 71.5425C73.5428 69.5421 74.6666 66.829 74.6666 64C74.6666 61.1711 73.5428 58.458 71.5424 56.4576C69.5421 54.4572 66.829 53.3334 64 53.3334C61.171 53.3334 58.4579 54.4572 56.4575 56.4576C54.4571 58.458 53.3333 61.1711 53.3333 64C53.3333 66.829 54.4571 69.5421 56.4575 71.5425C58.4579 73.5429 61.171 74.6667 64 74.6667ZM64 74.6667V117.333V74.6667ZM64 117.333H74.6666H64Z" stroke="#751C49" stroke-width="4" stroke-linecap="round" stroke-linejoin="round"/>
</svg>
