<svg width="128" height="128" viewBox="0 0 128 128" fill="none" xmlns="http://www.w3.org/2000/svg">
<g clip-path="url(#clip0_537_348)">
<rect width="128" height="128" rx="10" fill="#EFE8E8"/>
<path d="M64 0L16 23.912V80.176C16 92.9064 21.0571 105.115 30.0589 114.117C39.0606 123.119 51.2696 128.176 64 128.176C76.7304 128.176 88.9394 123.119 97.9411 114.117C106.943 105.115 112 92.9064 112 80.176V23.912L64 0ZM91.32 109.256L64 95.648V104.56L84.144 114.596C78.0754 118.131 71.1832 120.006 64.1602 120.032C57.1372 120.059 50.231 118.237 44.1356 114.748C38.0401 111.26 32.9704 106.229 29.4358 100.16C25.9013 94.0912 24.0265 87.199 24 80.176V28.84L64 8.912L104 28.84V43.84L64 23.912V32.824L104 52.752V67.752L64 47.824V56.736L104 76.664V80.176C104.002 83.8096 103.504 87.4262 102.52 90.924L64 71.736V80.648L99.58 98.372C97.4696 102.446 94.6757 106.127 91.32 109.256Z" fill="#751C49"/>
</g>
<defs>
<clipPath id="clip0_537_348">
<rect width="128" height="128" rx="10" fill="white"/>
</clipPath>
</defs>
</svg>
